<svg width="40" height="40" viewBox="0 0 40 40" fill="none" xmlns="http://www.w3.org/2000/svg">
<path d="M20 40C31.0457 40 40 31.0457 40 20C40 8.9543 31.0457 0 20 0C8.9543 0 0 8.9543 0 20C0 31.0457 8.9543 40 20 40Z" fill="#0F4C75"/>
<path d="M39.2725 25.36L23.2328 9.32031L10.0187 30.6797L19.3265 39.9875C19.5502 39.9949 19.7745 40 20 40C29.1889 40 36.9294 33.8027 39.2725 25.36Z" fill="#E94560"/>
<path d="M23.2328 9.32031H16.7672L10.0187 30.6797H14.7711L16.3726 25.6094H23.6273L25.2289 30.6797H29.9812L23.2328 9.32031ZM17.8039 21.0781L20 14.1281L22.1961 21.0781H17.8039Z" fill="#F8FFFB"/>
<path d="M23.2328 9.32031H20V14.1281L22.1961 21.0781H20V25.6094H23.6273L25.2289 30.6797H29.9813L23.2328 9.32031Z" fill="#D8D8D8"/>
</svg>
