<svg width="23" height="26" viewBox="0 0 23 26" fill="none" xmlns="http://www.w3.org/2000/svg">
<g clip-path="url(#clip0)">
<path d="M11.5051 7.16016C8.23993 7.16016 5.60622 9.76524 5.60622 12.9949C5.60622 16.2246 8.23993 18.8297 11.5051 18.8297C14.7703 18.8297 17.404 16.2246 17.404 12.9949C17.404 9.76524 14.7703 7.16016 11.5051 7.16016ZM11.5051 16.7883C9.39506 16.7883 7.67006 15.0871 7.67006 12.9949C7.67006 10.9027 9.38993 9.20157 11.5051 9.20157C13.6203 9.20157 15.3402 10.9027 15.3402 12.9949C15.3402 15.0871 13.6152 16.7883 11.5051 16.7883ZM19.0212 6.92149C19.0212 7.67813 18.4051 8.28243 17.6453 8.28243C16.8803 8.28243 16.2694 7.67306 16.2694 6.92149C16.2694 6.16993 16.8855 5.56055 17.6453 5.56055C18.4051 5.56055 19.0212 6.16993 19.0212 6.92149ZM22.9281 8.30274C22.8408 6.4797 22.4198 4.86485 21.0696 3.53438C19.7245 2.20391 18.0919 1.78751 16.2489 1.6961C14.3493 1.58946 8.65578 1.58946 6.75622 1.6961C4.91828 1.78243 3.28569 2.19883 1.93547 3.5293C0.585243 4.85977 0.169394 6.47462 0.0769836 8.29766C-0.0308289 10.1766 -0.0308289 15.8082 0.0769836 17.6871C0.16426 19.5102 0.585243 21.125 1.93547 22.4555C3.28569 23.786 4.91314 24.2024 6.75622 24.2938C8.65578 24.4004 14.3493 24.4004 16.2489 24.2938C18.0919 24.2074 19.7245 23.791 21.0696 22.4555C22.4147 21.125 22.8357 19.5102 22.9281 17.6871C23.0359 15.8082 23.0359 10.1817 22.9281 8.30274ZM20.4741 19.7031C20.0736 20.6985 19.2984 21.4652 18.287 21.8664C16.7725 22.4606 13.1788 22.3235 11.5051 22.3235C9.83145 22.3235 6.23256 22.4555 4.72319 21.8664C3.71694 21.4703 2.94172 20.7035 2.53614 19.7031C1.93547 18.2051 2.07408 14.6504 2.07408 12.9949C2.07408 11.3395 1.9406 7.7797 2.53614 6.28673C2.93658 5.29141 3.7118 4.52462 4.72319 4.12344C6.2377 3.5293 9.83145 3.66641 11.5051 3.66641C13.1788 3.66641 16.7777 3.53438 18.287 4.12344C19.2933 4.51954 20.0685 5.28634 20.4741 6.28673C21.0748 7.78477 20.9361 11.3395 20.9361 12.9949C20.9361 14.6504 21.0748 18.2102 20.4741 19.7031Z" fill="black"/>
</g>
<defs>
<clipPath id="clip0">
<rect width="23" height="26" fill="white"/>
</clipPath>
</defs>
</svg>
